- 
http://www.Speed.Cd      fast  and The Hottest Private Tracker on the net

   signup is open now

Please Seed back to make the speed Faster!!!

------------------nfo--------------------------
-UUUUUUUU     UUUUUUUU           SSSSSSSSSSSSSSS         MMMMMMMM               MMMMMMMM     
U::::::U     U::::::U         SS:::::::::::::::S        M:::::::M             M:::::::M     
U::::::U     U::::::U        S:::::SSSSSS::::::S        M::::::::M           M::::::::M     
UU:::::U     U:::::UU        S:::::S     SSSSSSS        M:::::::::M         M:::::::::M     
 U:::::U     U:::::U         S:::::S                    M::::::::::M       M::::::::::M     
 U:::::D     D:::::U         S:::::S                    M:::::::::::M     M:::::::::::M     
 U:::::D     D:::::U          S::::SSSS                 M:::::::M::::M   M::::M:::::::M     
 U:::::D     D:::::U           SS::::::SSSSS            M::::::M M::::M M::::M M::::::M     
 U:::::D     D:::::U             SSS::::::::SS          M::::::M  M::::M::::M  M::::::M     
 U:::::D     D:::::U                SSSSSS::::S         M::::::M   M:::::::M   M::::::M     
 U:::::D     D:::::U                     S:::::S        M::::::M    M:::::M    M::::::M     
 U::::::U   U::::::U                     S:::::S        M::::::M     MMMMM     M::::::M     
 U:::::::UUU:::::::U         SSSSSSS     S:::::S        M::::::M               M::::::M     
  UU:::::::::::::UU   ...... S::::::SSSSSS:::::S ...... M::::::M               M::::::M     
    UU:::::::::UU     .::::. S:::::::::::::::SS  .::::. M::::::M               M::::::M     
      UUUUUUUUU       ......  SSSSSSSSSSSSSSS    ...... MMMMMMMM               MMMMMMMM   



              Rise of the Planet of the Apes 2011 BRRiP READNFO AC3 XViD - U.S.M


SOURCES:

Rise of the Planet of the Apes 2011 BluRay 1080p DTS 2Audio x264-CHD

IMDB:
 
http://www.imdb.com/title/tt1318514/


Video
ID                               : 0
Format                           : MPEG-4 Visual
Format profile                   : Advanced Simple@L5
Format settings, BVOP            : 2
Format settings, QPel            : No
Format settings, GMC             : No warppoints
Format settings, Matrix          : Default (MPEG)
Muxing mode                      : Packed bitstream
Codec ID                         : XVID
Codec ID/Hint                    : XviD
Duration                         : 1h 44mn
Bit rate                         : 1 480 Kbps
Width                            : 720 pixels
Height                           : 304 pixels
Display aspect ratio             : 2.35:1
Frame rate                       : 23.976 fps
Color space                      : YUV
Chroma subsampling               : 4:2:0
Bit depth                        : 8 bits
Scan type                        : Progressive
Compression mode                 : Lossy
Bits/(Pixel*Frame)               : 0.282
Stream size                      : 1.08 GiB (76%)
Writing library                  : XviD 64

Audio
ID                               : 1
Format                           : AC-3
Format/Info                      : Audio Coding 3
Mode extension                   : CM (complete main)
Codec ID                         : 2000
Duration                         : 1h 44mn
Bit rate mode                    : Constant
Bit rate                         : 448 Kbps
Channel(s)                       : 6 channels
Channel positions                : Front: L C R, Side: L R, LFE
Sampling rate                    : 48.0 KHz
Bit depth                        : 16 bits
Compression mode                 : Lossy
Stream size                      : 336 MiB (23%)
Alignment                        : Split accross interleaves
Interleave, duration             : 42 ms (1.00 video frame)
Interleave, preload duration     : 500 ms



WORKDONE:

First off ripped the 1080p release,done what we normally do filter wise to it....then we noitced the subs
not hardcoded and all the packs full or ape only were wrong.
So we grabbed the ppvrip release,went through it and noted times and subs and then made our own .srt file and
hardcoded it to our release....pita to do but not hard.
Audio just convert to AC3 and remuxed.

SCREENIES:

[IMG]http://i.imgur.com/NNKI0.png[/IMG]
[IMG]http://i.imgur.com/LUCDi.png[/IMG]
[IMG]http://i.imgur.com/ZFavW.png[/IMG]